<?xml version="1.0" encoding="UTF-8" standalone="no"?>
<!-- Generator: Adobe Illustrator 22.0.0, SVG Export Plug-In . SVG Version: 6.00 Build 0)  -->

<svg
   xmlns:dc="http://purl.org/dc/elements/1.1/"
   xmlns:cc="http://creativecommons.org/ns#"
   xmlns:rdf="http://www.w3.org/1999/02/22-rdf-syntax-ns#"
   xmlns:svg="http://www.w3.org/2000/svg"
   xmlns="http://www.w3.org/2000/svg"
   xmlns:sodipodi="http://sodipodi.sourceforge.net/DTD/sodipodi-0.dtd"
   xmlns:inkscape="http://www.inkscape.org/namespaces/inkscape"
   version="1.1"
   id="Layer_1"
   x="0px"
   y="0px"
   viewBox="0 0 906.5 689.21826"
   xml:space="preserve"
   sodipodi:docname="ciputra.svg"
   width="906.5"
   height="689.21826"
   inkscape:version="0.92.2 (5c3e80d, 2017-08-06)"><metadata
     id="metadata35"><rdf:RDF><cc:Work
         rdf:about=""><dc:format>image/svg+xml</dc:format><dc:type
           rdf:resource="http://purl.org/dc/dcmitype/StillImage" /><dc:title></dc:title></cc:Work></rdf:RDF></metadata><defs
     id="defs33" /><sodipodi:namedview
     pagecolor="#ffffff"
     bordercolor="#666666"
     borderopacity="1"
     objecttolerance="10"
     gridtolerance="10"
     guidetolerance="10"
     inkscape:pageopacity="0"
     inkscape:pageshadow="2"
     inkscape:window-width="1600"
     inkscape:window-height="837"
     id="namedview31"
     showgrid="false"
     fit-margin-top="0"
     fit-margin-left="0"
     fit-margin-right="0"
     fit-margin-bottom="0"
     inkscape:zoom="0.236"
     inkscape:cx="456.1"
     inkscape:cy="334.71824"
     inkscape:window-x="-8"
     inkscape:window-y="-8"
     inkscape:window-maximized="1"
     inkscape:current-layer="Layer_1" /><style
     type="text/css"
     id="style2">
	.st0{fill:#0D7C5D;}
	.st1{fill-rule:evenodd;clip-rule:evenodd;fill:#1C3A6B;}
	.st2{fill:#203365;}
</style><g
     id="g28"
     transform="translate(-43.9,-145.5)"><g
       id="g10"><g
         id="g6"><path
           class="st0"
           d="M 860.1,262.3 C 755.4,222.3 420.4,351.1 420.4,351.1 528.5,237.6 734,186.9 734,186.9 l 0.9,-41.4 c -324.7,81.8 -403,245.6 -403,245.6 L 119.2,501.4 v 3.6 l 206.4,-90.7 c -15.1,105 27.6,129.9 27.6,129.9 l 5.4,7.1 140.6,-6.2 C 673.6,478.4 743,428.5 743,428.5 936.8,299.4 860.1,262.3 860.1,262.3 Z M 740.7,381.7 v -56 C 447.1,521.8 371,456.5 371,456.5 329.6,423.1 397.7,381.7 397.7,381.7 698,260.3 807.4,276.3 807.4,276.3 c 95.1,11.3 -66.7,105.4 -66.7,105.4 z"
           id="path4"
           inkscape:connector-curvature="0"
           style="fill:#0d7c5d" /></g><path
         class="st1"
         d="m 298.1,544.1 v 87 h 440.4 v -87 z m 75.9,34.6 h -2.4 c -2.3,-5.1 -5.4,-9.3 -9.2,-12.4 -3.9,-3.1 -8.1,-4.6 -12.8,-4.6 -6.3,0 -11.1,2.1 -14.4,6.2 -3.3,4.1 -5,10.3 -5.1,18.5 -0.2,7.8 1.1,14.3 3.9,19.4 2.7,5.2 7.1,7.8 13,7.8 5.5,0 10.5,-1.6 15.2,-4.8 4.6,-3.2 7.9,-7.4 9.9,-12.5 h 1.7 v 19.4 h -1.3 c -1.6,-2.6 -3,-3.9 -4.4,-3.9 -0.4,0 -1.9,0.5 -4.6,1.4 -2.6,0.8 -5.1,1.4 -7.7,1.9 -2.6,0.4 -5.5,0.7 -8.8,0.7 -4.7,0.1 -9.2,-1.1 -13.6,-3.5 -4.4,-2.5 -8,-5.8 -10.7,-10.1 -2.7,-4.3 -4.1,-9.1 -4.2,-14.3 0,-5.2 1.3,-9.9 4,-14.3 2.7,-4.3 6.3,-7.7 10.6,-10.1 4.4,-2.4 9,-3.7 13.7,-3.7 4,0 6.9,0.2 8.9,0.6 2,0.4 4.1,1 6.4,1.7 2.3,0.7 4.4,1.1 6.2,1.1 1,0 1.8,-0.2 2.3,-0.5 0.5,-0.3 1,-1.1 1.6,-2.3 h 1.9 v 18.3 z m 33.3,-16 c -2.3,-0.1 -4,0.1 -5,0.4 -1.1,0.3 -1.7,1 -2,1.9 -0.3,0.9 -0.4,2.3 -0.4,4.2 v 36.9 c 0,3 0.4,4.8 1.3,5.5 0.8,0.7 2.9,1 6.2,1 v 2 h -25.7 v -2 c 2.4,-0.1 4,-0.2 4.8,-0.4 0.8,-0.2 1.5,-0.6 1.9,-1.4 0.5,-0.8 0.7,-2.1 0.7,-3.9 v -37.1 c 0,-2.3 -0.1,-3.9 -0.5,-4.9 -0.3,-1 -1,-1.6 -2,-1.9 -1,-0.3 -2.7,-0.4 -5,-0.3 v -2.1 h 25.7 z m 50,22.7 c -3,2 -8,3.1 -15.1,3.1 h -11 v 18 c 0,2.1 0.2,3.5 0.7,4.3 0.5,0.8 1.2,1.3 2.2,1.6 1,0.2 2.9,0.3 5.5,0.3 v 2 h -26.8 v -2 c 2.6,0 4.3,-0.1 5.3,-0.5 1,-0.3 1.6,-1 1.9,-2 0.3,-1 0.4,-2.6 0.4,-4.8 v -35.6 c 0,-2.2 -0.1,-3.8 -0.4,-4.7 -0.3,-0.9 -0.9,-1.6 -1.9,-1.9 -1,-0.3 -2.8,-0.5 -5.4,-0.5 v -2.1 h 24.9 c 4.5,0 8.6,0.5 12.3,1.6 3.7,1 6.6,2.8 8.8,5.2 2.2,2.4 3.3,5.4 3.2,9.1 0,3.8 -1.5,6.8 -4.6,8.9 z m -10.5,-20 c 3,1.8 4.4,4.7 4.4,8.7 -0.2,8.2 -4.7,12.3 -13.6,12.3 h -6.4 v -19 c 0,-2.1 0.3,-3.5 0.9,-4 0.6,-0.5 1.9,-0.8 4,-0.8 4.1,0.1 7.8,1 10.7,2.8 z m 85,-2.7 c -2.5,0 -4.3,0.4 -5.4,1.2 -1.1,0.8 -1.6,2.6 -1.6,5.3 v 28.1 c 0,4 -0.8,7.3 -2.5,9.8 -1.7,2.5 -4.3,4.5 -7.9,6 -4,1.7 -8.9,2.5 -14.9,2.5 H 498 c -16,-0.4 -24,-7 -24,-19.9 v -26.3 c 0,-2.9 -0.5,-4.8 -1.5,-5.6 -1,-0.8 -2.6,-1.2 -4.7,-1.2 v -2.1 h 24.6 v 2.1 c -1,0 -1.7,0 -2.1,0.1 -2.2,0 -3.7,0.3 -4.4,0.9 -0.7,0.6 -1.1,2.3 -1.1,5 V 595 c 0,6.4 1.3,11.1 4,14 2.7,2.9 6.9,4.5 12.6,4.6 3.5,0.1 6.8,-0.3 9.9,-1.4 3.1,-1.1 5.7,-2.9 7.7,-5.4 2,-2.5 3,-5.5 3,-9 v -28 c 0,-2.9 -0.6,-4.8 -1.8,-5.8 -1.2,-1 -3.4,-1.4 -6.6,-1.3 v -2.1 h 18.2 z m 58.1,13.1 c -5.2,-8.7 -11.4,-13 -18.5,-13 -1.2,0 -1.9,0.1 -2.3,0.4 -0.3,0.3 -0.5,1.1 -0.5,2.3 v 41 c 0,2.6 0.4,4.2 1.2,5 0.8,0.8 3.2,1.2 7.2,1.2 v 2 h -27.6 v -2 c 2.5,0 4.3,-0.1 5.3,-0.3 1,-0.2 1.8,-0.7 2.3,-1.5 0.5,-0.8 0.7,-2.1 0.7,-3.9 v -41.1 c 0,-1.3 -0.2,-2.1 -0.5,-2.6 -0.3,-0.4 -1.1,-0.6 -2.3,-0.6 -3.9,0 -7.5,1.2 -10.7,3.7 -3.3,2.5 -5.8,5.6 -7.8,9.3 l -1.7,-0.4 3.3,-15.8 h 2.7 c 0.7,0.7 2.2,1.1 4.2,1.1 h 35.9 c 2.6,0 4.1,-0.4 4.6,-1.1 h 2.9 l 3.2,15.8 z m 62.4,38.9 h -17.5 l -10.7,-20.8 c -1.1,-2.3 -2.1,-3.7 -3,-4.4 -0.9,-0.7 -1.9,-1 -3.2,-1 h -1.3 -4.5 v 17.4 c 0,2.1 0.1,3.5 0.3,4.4 0.2,0.9 0.9,1.5 2,1.9 1.1,0.4 2.8,0.6 5.3,0.5 v 2 h -24.9 v -2 c 2.9,0 4.8,-0.3 5.5,-0.9 0.8,-0.6 1.1,-2.5 1.1,-5.6 V 569 c 0,-2.7 -0.4,-4.4 -1.1,-5.2 -0.7,-0.7 -2.6,-1.1 -5.6,-1.1 v -2.1 h 22.8 c 4.5,0 8.5,0.4 12.2,1.3 3.7,0.9 6.8,2.5 9.2,4.9 2.4,2.4 3.7,5.6 3.7,9.6 0,3.6 -1.4,6.3 -4.3,8 -3,1.7 -5.7,2.6 -8.3,2.7 v 0.3 c 0.9,0.4 1.6,0.8 2.1,1.5 0.5,0.6 1,1.5 1.6,2.5 l 9.3,15.2 c 1.3,2.1 2.3,3.6 2.9,4.3 0.6,0.7 1.3,1.2 2.1,1.4 0.8,0.2 2.2,0.3 4.2,0.4 z m -22.1,-46.6 c 0.9,1.6 1.4,3.8 1.5,6.5 0,4.8 -1.9,8.2 -5.6,10.2 -2.6,1.1 -6.4,1.7 -11.6,1.8 -0.5,-0.1 -1.3,-0.1 -2.4,-0.1 v -23.7 c 4.2,0 7.2,0.1 9,0.2 1.9,0.2 3.4,0.6 4.6,1.1 2.1,1.1 3.5,2.4 4.5,4 z m 87.9,46.6 h -26 v -2 c 4.4,0 6.6,-0.9 6.6,-2.9 0,-0.8 -0.3,-1.9 -1,-3.3 l -3.9,-7.9 h -23.9 l -3.2,7.6 c -0.6,1.5 -0.9,2.6 -0.9,3.3 0,2.1 2.2,3.2 6.5,3.2 v 2 H 655 v -2 c 2.4,-0.5 4.2,-1.3 5.4,-2.4 1.2,-1.1 2.3,-2.6 3.3,-4.6 l 16.2,-36 c -0.5,-1.4 -1.1,-2.2 -1.6,-2.4 2,-1.7 3.6,-3.2 4.7,-4.4 0.5,-0.5 1.2,-1.1 1.8,-2 0.7,-0.8 1.1,-1.2 1.4,-1.2 0.4,0 0.8,0.4 1.2,1.3 l 21,43.1 c 1.3,3 2.3,5 3.2,6.1 1.1,1.4 3.3,2.3 6.5,2.5 z m -47.4,-18.7 10.4,-23.1 11,23.1 z"
         id="path8"
         inkscape:connector-curvature="0"
         style="clip-rule:evenodd;fill:#1c3a6b;fill-rule:evenodd" /></g><g
       id="g26"><path
         class="st2"
         d="m 198.7,726.7 c -6.6,-15 -15.6,-27 -26.9,-36.1 -11.3,-9.1 -23.7,-13.5 -37.2,-13.4 -18.3,0 -32.3,6 -42,18.1 -9.7,12.1 -14.6,30.1 -14.8,54 -0.4,22.6 3.3,41.5 11.3,56.6 8,15.1 20.6,22.7 37.9,22.7 16,0 30.7,-4.7 44.3,-14 13.5,-9.4 23.1,-21.5 28.7,-36.5 h 5 v 56.6 h -3.7 c -4.6,-7.6 -8.8,-11.4 -12.7,-11.4 -1.2,0 -5.6,1.4 -13.4,4.1 -7.5,2.3 -15,4.1 -22.5,5.4 -7.5,1.3 -16.1,1.9 -25.7,1.9 C 113.3,835 100.1,831.6 87.3,824.4 74.5,817.3 64.1,807.5 56.1,795 48.1,782.5 44,768.6 43.9,753.2 c 0,-15.1 3.9,-29 11.8,-41.6 7.8,-12.6 18.2,-22.5 31,-29.6 12.8,-7.1 26.1,-10.7 39.9,-10.7 11.5,0 20.1,0.6 25.8,1.8 5.7,1.2 11.9,2.9 18.6,5 6.7,2.1 12.7,3.2 18,3.3 3,0 5.3,-0.5 6.8,-1.4 1.5,-0.9 3.1,-3.1 4.6,-6.6 h 5.4 v 53.1 h -7.1 z"
         id="path12"
         inkscape:connector-curvature="0"
         style="fill:#203365" /><path
         class="st2"
         d="m 263.2,812.6 c 0,6.4 0.9,10.4 2.8,11.8 1.9,1.5 6.3,2.2 13.4,2.2 v 4.3 h -55.5 v -4.3 c 5.2,-0.2 8.7,-0.5 10.5,-0.8 1.8,-0.3 3.1,-1.3 4.2,-3 1,-1.7 1.5,-4.5 1.5,-8.5 v -80.2 c 0,-4.9 -0.3,-8.4 -1,-10.5 -0.7,-2.1 -2.1,-3.5 -4.3,-4.2 -2.2,-0.7 -5.8,-0.9 -10.8,-0.7 v -4.5 h 55.5 v 4.5 c -4.9,-0.1 -8.5,0.2 -10.8,1 -2.3,0.7 -3.8,2.1 -4.4,4.1 -0.6,2 -1,5 -1,9 v 79.8 z"
         id="path14"
         inkscape:connector-curvature="0"
         style="fill:#203365" /><path
         class="st2"
         d="m 307.9,734.2 c 0,-4.8 -0.3,-8.2 -0.9,-10.2 -0.6,-2 -2,-3.4 -4.2,-4.1 -2.2,-0.7 -6.1,-1 -11.6,-1 v -4.5 H 345 c 9.7,0 18.5,1.1 26.5,3.4 7.9,2.2 14.3,6 19,11.1 4.7,5.2 7.1,11.7 7,19.6 -0.2,8.4 -3.6,14.9 -10.1,19.3 -6.5,4.4 -17.4,6.6 -32.6,6.6 H 331 v 38.9 c 0,4.5 0.5,7.6 1.4,9.4 1,1.8 2.6,2.9 4.8,3.4 2.2,0.5 6.2,0.7 12,0.7 v 4.3 h -57.9 v -4.3 c 5.5,0 9.4,-0.3 11.5,-1 2.1,-0.7 3.5,-2.1 4.2,-4.2 0.6,-2.1 1,-5.6 1,-10.4 v -77 z m 23,-5.2 v 41 h 13.8 c 19.3,0 29.1,-8.8 29.4,-26.6 0.1,-8.6 -3,-14.9 -9.4,-18.8 -6.4,-3.9 -14.2,-5.8 -23.4,-5.8 -4.5,0 -7.3,0.6 -8.6,1.7 -1.2,1.1 -1.8,4 -1.8,8.5 z"
         id="path16"
         inkscape:connector-curvature="0"
         style="fill:#203365" /><path
         class="st2"
         d="m 423.2,733.5 c 0,-6.3 -1.1,-10.3 -3.2,-12.1 -2.1,-1.8 -5.6,-2.6 -10.2,-2.6 v -4.5 h 53.1 v 4.5 c -2.1,0 -3.7,0.1 -4.6,0.3 -4.8,0 -8,0.7 -9.6,2 -1.6,1.3 -2.4,4.9 -2.4,10.8 v 56.5 c 0,13.9 2.9,24 8.7,30.3 5.8,6.4 14.9,9.7 27.3,10 7.5,0.3 14.6,-0.7 21.4,-3.1 6.8,-2.4 12.3,-6.3 16.7,-11.6 4.4,-5.3 6.6,-11.8 6.6,-19.4 v -60.5 c 0,-6.2 -1.3,-10.3 -3.9,-12.5 -2.6,-2.1 -7.3,-3.1 -14.2,-2.9 v -4.5 h 39.4 v 4.5 c -5.4,0 -9.3,0.9 -11.6,2.6 -2.3,1.7 -3.4,5.6 -3.4,11.5 v 60.7 c 0,8.8 -1.8,15.8 -5.4,21.2 -3.6,5.4 -9.3,9.7 -17,13 -8.5,3.6 -19.3,5.4 -32.2,5.4 h -3.5 c -34.6,-0.9 -51.9,-15.2 -51.9,-42.9 v -56.7 z"
         id="path18"
         inkscape:connector-curvature="0"
         style="fill:#203365" /><path
         class="st2"
         d="m 604.1,725.7 c 0,-2.8 -0.3,-4.6 -1,-5.5 -0.7,-0.9 -2.3,-1.4 -4.9,-1.4 -8.4,0 -16.2,2.7 -23.2,8 -7,5.3 -12.6,12.1 -16.8,20.2 l -3.7,-1 7.2,-34.1 h 5.9 c 1.6,1.6 4.6,2.4 9.1,2.4 h 77.5 c 5.5,0 8.9,-0.8 9.9,-2.4 h 6.2 l 6.9,34.1 -3.7,1 c -11.2,-18.8 -24.5,-28.2 -40,-28.2 -2.6,0 -4.2,0.3 -4.9,1 -0.7,0.6 -1,2.3 -1,5 v 88.5 c 0,5.5 0.8,9.2 2.6,10.9 1.8,1.7 7,2.6 15.5,2.6 v 4.3 H 586 v -4.3 c 5.4,0 9.3,-0.2 11.5,-0.6 2.2,-0.4 3.9,-1.5 5,-3.2 1.1,-1.7 1.6,-4.5 1.6,-8.5 z"
         id="path20"
         inkscape:connector-curvature="0"
         style="fill:#203365" /><path
         class="st2"
         d="m 698.5,732.2 c 0,-5.9 -0.8,-9.6 -2.4,-11.1 -1.6,-1.5 -5.6,-2.3 -12,-2.3 v -4.5 h 49.1 c 9.6,0 18.4,0.9 26.4,2.8 8,1.9 14.6,5.4 19.9,10.6 5.3,5.2 8,12.1 8.1,20.7 0.1,7.9 -3,13.7 -9.4,17.3 -6.4,3.6 -12.3,5.6 -17.8,5.9 v 0.6 c 1.9,0.7 3.4,1.8 4.6,3.2 1.1,1.4 2.3,3.1 3.4,5.3 l 20,32.8 c 2.9,4.6 5,7.7 6.3,9.2 1.3,1.5 2.9,2.5 4.6,3 1.8,0.4 4.8,0.8 9,1 v 4.3 h -37.8 l -23,-45 c -2.5,-4.9 -4.6,-8.1 -6.5,-9.5 -1.9,-1.4 -4.2,-2.2 -7,-2.2 h -2.9 -9.8 V 812 c 0,4.5 0.2,7.6 0.7,9.5 0.5,1.9 1.9,3.2 4.2,4.1 2.3,0.9 6.1,1.2 11.4,1.1 v 4.3 h -53.8 v -4.3 c 6.3,0 10.3,-0.7 11.9,-2 1.7,-1.3 2.5,-5.4 2.5,-12.1 v -80.4 z m 23.1,-13.4 V 770 c 2.3,0 4.1,0.1 5.1,0.3 11.1,-0.3 19.4,-1.7 25,-4 8.1,-4.2 12.2,-11.5 12.2,-21.9 -0.1,-5.9 -1.2,-10.5 -3.2,-14 -2,-3.5 -5.2,-6.3 -9.6,-8.6 -2.6,-1.3 -5.9,-2.1 -9.9,-2.5 -4.2,-0.3 -10.7,-0.5 -19.6,-0.5 z"
         id="path22"
         inkscape:connector-curvature="0"
         style="fill:#203365" /><path
         class="st2"
         d="m 867.8,733.8 c -1.2,-3.1 -2.3,-4.8 -3.4,-5.1 4.4,-3.7 7.8,-6.9 10.2,-9.6 1.2,-1.1 2.5,-2.5 3.9,-4.2 1.4,-1.8 2.4,-2.6 3,-2.6 0.9,0 1.7,0.9 2.6,2.7 l 45.3,93.1 c 2.8,6.4 5.1,10.8 6.9,13.1 2.4,3.1 7.1,4.9 14.1,5.4 v 4.3 h -56.2 v -4.3 c 9.5,0 14.2,-2.1 14.2,-6.2 0,-1.8 -0.7,-4.2 -2.1,-7.2 l -8.5,-17 h -51.5 l -6.9,16.3 c -1.3,3.2 -1.9,5.6 -1.9,7.2 0,4.6 4.7,6.9 14.1,6.9 v 4.3 h -37.5 v -4.3 c 5.1,-1.1 9,-2.8 11.7,-5.2 2.7,-2.4 5,-5.7 7,-9.8 z m 26.6,56.9 -23.7,-49.9 -22.6,49.9 z"
         id="path24"
         inkscape:connector-curvature="0"
         style="fill:#203365" /></g></g></svg>