<?xml version="1.0" encoding="UTF-8" standalone="no"?>
<!-- Creator: CorelDRAW X6 -->

<svg
   xmlns:dc="http://purl.org/dc/elements/1.1/"
   xmlns:cc="http://creativecommons.org/ns#"
   xmlns:rdf="http://www.w3.org/1999/02/22-rdf-syntax-ns#"
   xmlns:svg="http://www.w3.org/2000/svg"
   xmlns="http://www.w3.org/2000/svg"
   xmlns:sodipodi="http://sodipodi.sourceforge.net/DTD/sodipodi-0.dtd"
   xmlns:inkscape="http://www.inkscape.org/namespaces/inkscape"
   xml:space="preserve"
   width="10.416667in"
   height="1.4619064in"
   version="1.1"
   style="clip-rule:evenodd;fill-rule:evenodd;image-rendering:optimizeQuality;shape-rendering:geometricPrecision;text-rendering:geometricPrecision"
   viewBox="0 0 10416.64 1461.9027"
   id="svg17"
   sodipodi:docname="Lippo Malls.svg"
   inkscape:version="0.92.4 (5da689c313, 2019-01-14)"><metadata
   id="metadata21"><rdf:RDF><cc:Work
       rdf:about=""><dc:format>image/svg+xml</dc:format><dc:type
         rdf:resource="http://purl.org/dc/dcmitype/StillImage" /><dc:title></dc:title></cc:Work></rdf:RDF></metadata><sodipodi:namedview
   pagecolor="#ffffff"
   bordercolor="#666666"
   borderopacity="1"
   objecttolerance="10"
   gridtolerance="10"
   guidetolerance="10"
   inkscape:pageopacity="0"
   inkscape:pageshadow="2"
   inkscape:window-width="1920"
   inkscape:window-height="1001"
   id="namedview19"
   showgrid="false"
   fit-margin-top="0"
   fit-margin-left="0"
   fit-margin-right="0"
   fit-margin-bottom="0"
   inkscape:zoom="1"
   inkscape:cx="724.04368"
   inkscape:cy="13.323264"
   inkscape:window-x="-9"
   inkscape:window-y="-9"
   inkscape:window-maximized="1"
   inkscape:current-layer="svg17" />
 <defs
   id="defs4">
  <style
   type="text/css"
   id="style2">
   <![CDATA[
    .fil0 {fill:black}
    .fil1 {fill:white}
   ]]>
  </style>
 
  
  =&quot;http://purl.org/dc/elements/1.1/&quot;/&gt;
  
  =&quot;http://purl.org/dc/elements/1.1/&quot;/&gt;
  
 
   
   
  </defs>
 <path
   class="fil0"
   d="m 4174.1384,263.98681 c 202.8554,-81.9224 433.0181,62.417 472.0288,343.2936 105.3287,749.00429 -670.983,780.21279 -729.499,237.9649 -27.3074,-257.4702 7.8021,-479.8309 253.5692,-581.2585 z m -542.2479,573.4564 c 11.7032,202.85529 81.9224,343.29359 222.3607,475.92979 284.7777,276.9755 1170.3192,230.1627 1084.4958,-694.38939 -11.7032,-140.4383 -70.2192,-308.1841 -163.8447,-413.5128 l -23.4064,-23.4064 C 4611.0576,37.725067 4419.9055,-20.790893 4174.1384,6.516547 3967.382,29.922937 3830.8448,135.25171 3745.0214,267.88781 c -113.1309,171.6468 -132.6362,335.4915 -117.0319,569.5554 z M 1693.0618,287.39311 c 226.2617,0 472.0287,-54.6148 464.2266,206.7564 -7.8022,237.9649 -249.6681,198.9543 -464.2266,195.0532 z m 0,647.5767 c 50.7138,0 366.7,42.9117 585.1596,-78.0213 198.9542,-109.2298 230.1627,-542.2479 31.2085,-713.8947 C 2133.882,-9.087703 1673.5564,41.626127 1419.9873,45.527187 V 1414.8006 h 273.0745 z m 1119.6053,-647.5767 c 140.4383,-7.8021 394.0075,-39.0106 444.7213,89.7245 27.3075,66.3181 23.4064,183.35 -15.6043,234.0639 -78.0212,101.4276 -288.6787,81.9223 -429.117,74.1202 z m 0,643.6756 c 187.2511,7.8021 429.117,19.5053 589.0607,-74.1202 230.1627,-136.5373 261.3713,-764.608553 -214.5585,-807.520253 -136.5373,-11.70319 -518.8416,-15.60426 -651.4777,0 V 1414.8006 H 2808.766 V 927.16761 Z M 5352.2597,205.47081 5796.981,1410.8996 h 124.8341 L 6374.3385,209.37191 V 1414.8006 h 128.7351 V 41.626127 l -198.9542,3.90106 C 6296.3172,84.537827 5890.6066,1208.0442 5867.2002,1243.1538 L 5422.4789,45.527187 H 5219.6236 V 1418.7017 h 132.6361 l 3.9011,-1209.32979 z M 0,1410.8996 h 951.8596 v -234.0639 l -682.68619,3.9011 V 45.527187 H 3.90106 L 0,1414.8006 Z m 1049.3862,0 273.0745,-3.9011 V 41.626127 h -273.0745 z m 5508.3023,0 h 132.6362 l 472.0287,-1244.43939 472.0288,1240.53829 136.5372,3.9011 L 7248.1768,41.626127 H 7092.1343 L 6561.5896,1410.8996 Z m 2165.0905,3.901 c 159.9436,0 323.7883,0 483.7319,0 206.7561,0 280.8771,39.0107 374.5021,-105.3287 l -725.5978,-3.9011 V 41.626127 H 8726.6801 V 1414.8006 Z m -195.0532,0 c 70.2192,0 120.933,-50.7138 148.2404,-105.3287 H 7950.3683 V 45.527187 H 7821.6332 V 1410.8996 l 709.9937,3.901 z m 1139.1102,-261.3713 -35.109,120.933 c 136.537,136.5373 452.523,195.0532 635.873,58.516 187.251,-136.5372 202.856,-429.11699 19.506,-573.45639 -136.538,-109.2298 -464.227,-152.1415 -472.029,-366.7 -3.901,-120.933 74.12,-214.5585 183.35,-230.1628 156.042,-27.3074 234.064,54.6149 319.887,105.3287 l 54.615,-105.3287 c -479.831,-394.00746 -1002.573,292.5798 -440.82,561.7532 93.625,46.8128 202.855,81.9224 276.975,144.3394 78.022,66.3181 113.131,214.55849 42.912,323.78829 -54.615,81.9223 -159.944,128.7351 -300.382,109.2298 -120.933,-19.5053 -218.459,-93.6256 -280.876,-144.3394 z"
   id="path13"
   inkscape:connector-curvature="0"
   style="fill:#000000;stroke-width:3.90106392" />
</svg>